<?xml version="1.0" encoding="UTF-8" standalone="no"?>
<svg
   xmlns:dc="http://purl.org/dc/elements/1.1/"
   xmlns:cc="http://creativecommons.org/ns#"
   xmlns:rdf="http://www.w3.org/1999/02/22-rdf-syntax-ns#"
   xmlns:svg="http://www.w3.org/2000/svg"
   xmlns="http://www.w3.org/2000/svg"
   xmlns:sodipodi="http://sodipodi.sourceforge.net/DTD/sodipodi-0.dtd"
   xmlns:inkscape="http://www.inkscape.org/namespaces/inkscape"
   enable-background="new 0 0 595.28 841.89"
   version="1.1"
   viewBox="0 0 299.99999 300.12579"
   xml:space="preserve"
   id="svg16"
   sodipodi:docname="logo.svg"
   inkscape:version="1.0.2 (e86c870879, 2021-01-15, custom)"
   width="180"
   height="180"><metadata
   id="metadata22"><rdf:RDF><cc:Work
       rdf:about=""><dc:format>image/svg+xml</dc:format><dc:type
         rdf:resource="http://purl.org/dc/dcmitype/StillImage" /><dc:title /></cc:Work></rdf:RDF></metadata><defs
   id="defs20"><clipPath
     clipPathUnits="userSpaceOnUse"
     id="clipPath863"><path
       d="M 0,0 H 520 V 520 H 0 Z"
       id="path861" /></clipPath><radialGradient
     fx="0"
     fy="0"
     cx="0"
     cy="0"
     r="1"
     gradientUnits="userSpaceOnUse"
     gradientTransform="matrix(260,0,0,-260,260,260)"
     spreadMethod="pad"
     id="radialGradient873"><stop
       style="stop-opacity:1;stop-color:#ffffff"
       offset="0"
       id="stop869" /><stop
       style="stop-opacity:1;stop-color:#f1f1f2"
       offset="1"
       id="stop871" /></radialGradient></defs><sodipodi:namedview
   pagecolor="#ffffff"
   bordercolor="#666666"
   borderopacity="1"
   objecttolerance="10"
   gridtolerance="10"
   guidetolerance="10"
   inkscape:pageopacity="0"
   inkscape:pageshadow="2"
   inkscape:window-width="2560"
   inkscape:window-height="1017"
   id="namedview18"
   showgrid="false"
   inkscape:zoom="2.2854344"
   inkscape:cx="82.895871"
   inkscape:cy="181.10156"
   inkscape:window-x="-8"
   inkscape:window-y="-8"
   inkscape:window-maximized="1"
   inkscape:current-layer="svg16"
   fit-margin-top="0"
   fit-margin-left="0"
   fit-margin-right="0"
   fit-margin-bottom="0"
   inkscape:document-rotation="0" />
	<circle
   cx="150"
   cy="150"
   r="150"
   fill="#00AAA5"
   id="circle2"
   style="fill:#006ea5;fill-opacity:1" />
	<path
   d="M 198.72091,7.8883076 106.24015,292.63861 c 76.89064,25.70334 159.72318,-16.88923 185.20401,-95.3453 C 316.92562,118.83534 275.41886,34.169088 198.71782,7.8977976 Z"
   fill="#00A79D"
   id="path4"
   style="fill:#006ea5;fill-opacity:1;stroke-width:0.989789" />
			<circle
   cx="135.39493"
   cy="108.85999"
   r="49.418999"
   fill="#1c75bc"
   id="circle6" />
			<path
   d="m 96.68593,160.9672 -29.50584,74.22676 c -1.93589,4.86816 1.69137,10.8771 8.09673,13.42329 6.40668,2.54672 13.16992,0.66658 15.10478,-4.19895 l 29.50596,-74.229 c 28.31527,5.02362 57.29342,-10.34535 68.32343,-38.09315 12.6078,-31.7189 -2.93973,-67.782232 -34.6581,-80.391342 -31.71981,-12.6074 -67.78223,2.93973 -80.39134,34.6581 C 62.13114,114.1098 72.64742,145.17893 96.68593,160.9672 Z M 96.36265,95.586328 c 7.52352,-18.92473 29.04104,-28.20131 47.96538,-20.67871 18.92748,7.52233 28.20446,29.040772 20.6795,47.967222 -7.52129,18.92485 -29.03973,28.20183 -47.96538,20.6787 C 98.1165,136.03042 88.83953,114.51198 96.36265,95.586328 Z"
   fill="#d1d3d4"
   id="path8"
   style="fill:#e6e7e8;fill-opacity:1" />
			
			<path
   d="m 165.48806,122.66867 c 7.38218,-18.98259 -2.05621,-40.429602 -21.04025,-47.810062 l 9.04891,-23.27124 c 31.81243,12.36981 47.6312,48.31501 35.2627,80.127992 -10.82107,27.82918 -39.6822,43.41692 -68.03454,38.60675 l -27.85834,71.64992 c -2.4993,6.42608 -9.73375,9.60981 -16.15943,7.11145 L 117.67943,143.7072 c 18.98178,7.38034 40.42972,-2.05844 47.80863,-21.03853 z"
   fill="#e6e7e8"
   id="path12"
   style="fill:#e6e7e8;fill-opacity:1" />
		
<path
   id="path1127"
   style="fill:#d3d3d3;fill-opacity:1;stroke-width:1.38515"
   d="m 119.68555,56.669922 c 0.003,0.0017 0.004,0.0047 0.008,0.0059 0.004,-0.002 0.008,-0.0039 0.0117,-0.0059 z m 40.99218,0.04492 c 0.0166,0.009 0.0336,0.01759 0.0508,0.02539 0.0123,0.006 -0.0166,-0.01379 -0.0312,-0.02539 z m 2.24415,0.002 c 0.0581,0.0177 0.13259,0.03248 0.17773,0.05078 0.0829,0.0336 0.15878,0.084 0.23828,0.125 0.004,0.002 0.007,0.0039 0.0117,0.0059 -0.017,-0.0974 -0.0194,-0.132778 -0.0254,-0.179688 z m 0.64453,0.002 c 0.0405,0.0197 0.0632,0.02719 0.11718,0.05469 0.35153,0.179459 0.71731,0.387501 0.92579,0.738281 0.0295,0.0496 0.0513,0.102803 0.0664,0.158203 0.003,3.8e-4 0.005,0.002 0.008,0.002 -5e-5,-0.005 -2e-5,-0.01042 0,-0.01563 0.23894,0.1287 0.42114,0.335689 0.62305,0.511719 0.005,0.004 0.0106,0.007 0.0156,0.01172 0.008,-0.0233 0.005,-0.05007 0.0176,-0.07227 0.0321,-0.0574 0.0901,-0.02374 0.15235,0.03516 0.0453,0.0128 0.0918,0.02242 0.13281,0.04492 0.48202,0.26517 0.83002,0.690454 1.20117,1.083984 0.0645,0.0594 0.11444,0.131726 0.17188,0.197266 0.0179,-1.9e-4 0.0319,-0.0049 0.0508,-0.0039 0.0854,0.005 0.18041,0.0251 0.2832,0.0625 0.40619,0.14771 0.52528,0.17537 0.89844,0.36914 0.0664,0.0346 0.15255,0.0559 0.18945,0.121094 0.0643,0.11361 0.0827,0.165335 0.11524,0.234375 0.10367,0.0262 0.17988,0.01251 0.25781,0.199219 0.0128,0.009 0.0316,0.01188 0.043,0.02148 0.06,0.0505 0.0859,0.0883 0.11914,0.128906 0.30332,0.0807 0.59454,0.194282 0.7793,0.457032 0.0123,0.0175 0.0177,0.03949 0.0273,0.05859 -0.0212,-0.0162 -0.0841,-0.06693 -0.0644,-0.04883 0.0568,0.0522 0.0352,0.02955 0.0703,0.06055 l 0.002,0.002 c 0.23044,0.20339 0.11078,0.0692 0.31641,0.333985 0.0311,0.0401 0.0644,0.07881 0.0977,0.117187 0.002,0.003 0.002,0.0019 0.004,0.0039 0.0669,0.0783 0.0675,0.08784 0.0449,0.02734 0.22245,0.0959 0.33255,0.241685 0.49805,0.421875 0.009,0.009 0.0204,0.01614 0.0254,0.02734 0.0277,0.066 0.0622,0.130536 0.0898,0.197266 0.0373,0.0292 0.0769,0.06565 0.10938,0.09375 0.0535,0.0566 0.31374,0.261025 0.33984,0.328125 0.005,0.014 0.009,0.02877 0.0137,0.04297 0.10517,0.0839 0.21013,0.168507 0.31836,0.248047 0.38698,0.21249 0.78112,0.410808 1.07227,0.753906 0.21478,0.214931 0.41632,0.443624 0.63086,0.658204 0.15863,0.0929 0.18496,0.102145 0.34961,0.234375 0.15087,0.12116 0.26055,0.291321 0.39843,0.425781 -0.092,-0.0345 -0.13656,-0.07771 0.10938,0.05469 0.29424,0.15841 0.53506,0.408141 0.81445,0.587891 v 0.002 c 0.20842,0.13408 0.30502,0.288571 0.33203,0.431641 h 53.06836 c 0.35162,0 0.69007,0.177141 0.9375,0.457031 0.24744,0.2652 0.4043,0.64996 0.4043,1.0625 v 73.867185 c 0,2.56348 1.83556,4.63868 4.10156,4.63867 2.26601,0 4.10348,-2.07519 4.10352,-4.63867 V 67.59375 c 0,-2.97597 -1.06871,-5.675316 -2.80078,-7.634766 -1.73206,-1.94468 -4.11544,-3.166025 -6.7461,-3.166015 z m -0.8125,1.355469 c 0.003,0.005 0.005,0.01053 0.008,0.01563 0.008,0.0125 0.009,0.03333 0.0137,0.04883 0.0594,0.0138 0.1254,0.02372 0.19141,0.04492 -0.072,-0.0346 -0.14142,-0.07379 -0.21289,-0.109375 z m 5.03125,2.171875 c -0.0218,0.0224 -0.0444,0.04517 -0.0508,0.07617 -0.007,0.0325 0.0158,0.0614 0.0254,0.0918 0.009,0.0102 0.0178,0.02115 0.0273,0.03125 -0.002,-0.0586 -0.003,-0.114508 -0.002,-0.199218 z m 2.27734,4.871094 c 0.001,0.0146 -0.0113,0.01662 -0.0391,0.0078 0.0449,0.0307 0.0827,0.07176 0.13086,0.09766 0.0226,0.0122 0.055,0.01208 0.0801,0.02148 -0.0571,-0.0427 -0.11548,-0.0832 -0.17188,-0.126953 z m 1.40234,0.925781 c 0.007,0.0261 0.0144,0.05223 0.0215,0.07813 h 0.13867 c -0.0535,-0.0259 -0.1074,-0.05083 -0.16016,-0.07813 z m -27.57031,41.867191 v 0.0586 c 0.0167,-0.0202 0.0359,-0.0383 0.0527,-0.0586 z m 1.53516,0 c 0.007,0.008 0.0148,0.0169 0.0234,0.0273 0.065,-0.007 0.12003,-0.0214 0.18555,-0.0273 z m -3.98242,0.22656 c -0.10847,0.0381 -0.21978,0.0676 -0.32422,0.11523 0.003,0.038 0.006,0.078 0.002,0.12305 0.046,-0.0211 0.091,-0.0576 0.16211,-0.0879 0.0572,-0.0369 0.10772,-0.0833 0.16211,-0.125 3e-4,-0.008 6.8e-4,-0.0171 -0.002,-0.0254 z m 58.00585,6.09766 v 0.002 c 0.006,0.0554 0.0152,0.0785 0.0215,0.13867 0.002,-0.003 0.005,-0.009 0.008,-0.0117 -1.2e-4,-0.0424 0.002,-0.0864 0.002,-0.1289 -0.0102,-2.9e-4 -0.0216,2.8e-4 -0.0313,0 z m 0.33204,0.0293 c -0.008,0.01 -0.0151,0.0192 -0.0215,0.0293 0.0226,-0.006 0.0219,-0.006 -0.008,0.008 -0.0253,0.0403 -0.0514,0.078 -0.0742,0.1211 0.045,-0.0183 0.0862,-0.0433 0.13086,-0.0625 -0.008,-0.0343 -0.021,-0.0595 -0.0273,-0.0957 z m -11.40625,1.37695 c -0.0168,9.7e-4 -0.0341,0.003 -0.0508,0.006 0.003,9.6e-4 0.0149,-6.5e-4 0.0176,0.002 0.0113,-9.5e-4 0.0221,-0.007 0.0332,-0.008 z M 227.75,165.14648 c -0.88557,0.0147 -1.64051,0.41176 -2.26562,1.14844 l -5.09376,5.9961 14.28711,15.60351 5.14454,-6.05469 c 0.61207,-0.70716 0.87238,-1.62318 0.85937,-2.625 -0.0131,-0.98706 -0.32605,-1.8848 -0.95117,-2.5625 l -9.66406,-10.45898 c -0.66418,-0.72187 -1.4309,-1.0616 -2.31641,-1.04688 z m -11.89062,12.44922 -26.76368,31.49805 -3.52929,15.39453 c -1.11999,4.90595 -1.42002,7.26472 -0.91211,7.08789 0.52092,-0.16205 3.01031,-1.07656 7.45117,-2.72656 1.87533,-0.70718 3.74838,-1.42956 5.63672,-2.13672 1.87533,-0.69245 3.75228,-1.39848 5.64062,-2.07617 l 26.75,-31.49805 z m -106.91016,2.48828 c -0.0474,0.009 -0.0952,0.0162 -0.14258,0.0254 -0.0119,0.10147 -0.0395,0.22106 -0.0625,0.33398 0.007,10e-4 0.0143,0.002 0.0215,0.004 0.0623,-0.12049 0.12152,-0.24262 0.1836,-0.36329 z m -6.9082,4.54883 c -0.0834,0.003 -0.1666,0.0107 -0.25,0.0156 -0.0871,-0.003 -0.17458,-0.009 -0.26172,-0.0117 v 0.88867 c 0.0751,-0.12057 0.14172,-0.24576 0.21875,-0.36523 0.0802,-0.18192 0.19074,-0.35356 0.29297,-0.52735 z m 7.67578,13.86328 c -0.008,0.0161 -0.0149,0.0329 -0.0234,0.0488 -0.0323,0.0544 -0.0644,0.11056 -0.0977,0.16406 -0.0117,0.0185 -0.0127,0.0111 -0.0195,0.0176 -0.006,0.0606 -0.0133,0.12108 -0.0195,0.18164 -0.0374,0.11838 -0.0644,0.24052 -0.11133,0.35547 -0.0512,0.12564 -0.17969,0.33097 -0.29101,0.51758 -0.004,0.021 -0.006,0.0421 -0.0117,0.0625 -0.0466,0.18157 -0.0494,0.17446 -0.11524,0.33008 -0.03,0.0709 -0.0602,0.14199 -0.0898,0.21289 -0.0197,0.0468 -0.10243,0.23826 -0.11914,0.28516 -0.007,0.0188 0.001,0.045 -0.0137,0.0586 -0.008,0.008 -0.0136,-0.0407 -0.0156,-0.0293 -0.0115,0.0666 0.002,0.13527 -0.0137,0.20117 -0.0105,0.0456 -0.0418,0.0849 -0.0625,0.12696 -0.0275,0.037 -0.0602,0.069 -0.0859,0.10742 -0.0669,0.0999 -0.0433,0.25434 -0.14062,0.33984 -0.12504,0.1646 -0.10908,0.1403 -0.26172,0.24805 0.002,-0.002 -0.009,0.0226 -0.004,0.0137 -0.0624,0.18551 -0.0256,0.11786 -0.17578,0.31445 -0.002,0.002 -0.003,-0.007 -0.004,-0.01 -0.0142,0.0123 -0.0288,0.0249 -0.043,0.0371 -0.003,0.004 -0.0154,0.0335 -0.0234,0.0508 -0.009,0.0407 -0.012,0.0803 -0.0215,0.12109 -0.0943,0.13934 -0.022,0.0336 -0.0957,0.14453 -0.01,0.0239 -0.0615,0.1122 -0.11523,0.17579 -0.0331,0.0511 -0.0336,0.0496 -0.0605,0.0918 0.0171,-0.0129 0.0295,-0.0188 0.041,-0.0312 -0.0228,0.0477 -0.0532,0.11075 -0.0254,0.0586 -0.0496,0.14773 -0.12383,0.28166 -0.16993,0.42968 -0.0629,0.18492 -0.0338,0.1331 -0.17968,0.33594 -0.006,0.009 -0.0164,0.0116 -0.0254,0.0176 -0.004,-0.001 -0.0107,-0.008 -0.0137,-0.004 -0.0316,0.0339 -0.0258,0.0933 -0.0625,0.12305 -0.0242,0.0547 -0.0425,0.11422 -0.0723,0.16602 -0.004,0.007 0.004,-0.0174 0.002,-0.0254 -8e-4,-0.004 -0.0116,-0.01 -0.0117,-0.008 -0.0105,0.30844 0.0512,0.01 -0.0625,0.39844 -0.0226,0.0326 -0.0811,0.11468 -0.0977,0.14648 -0.0369,0.071 -0.0598,0.14921 -0.0957,0.22071 -0.002,0.003 -0.005,-0.009 -0.006,-0.0117 -0.004,-0.0199 -0.006,-0.0387 -0.01,-0.0586 0.0149,0.17735 -0.0195,0.4475 -0.16406,0.57617 -0.0332,0.0296 -0.0715,0.0526 -0.10938,0.0762 -0.0577,0.20997 -0.10206,0.42224 -0.17187,0.6289 -0.0429,0.092 -0.0607,0.13372 -0.11915,0.22852 -0.007,0.011 -0.0166,0.0263 -0.0293,0.0293 -0.0107,0.003 -0.0273,-0.0245 -0.0293,-0.0137 -0.0256,0.12568 0.087,0.26396 -0.0449,0.38085 -0.0339,0.0542 -0.0622,0.0827 -0.0879,0.11329 0.001,-0.006 -0.002,-0.0181 -0.004,-0.0137 -0.004,0.0109 -0.008,0.022 -0.0117,0.0332 v 0.002 c -0.0212,0.0704 -0.0297,0.14503 -0.0703,0.20899 -0.0421,0.0812 -0.0893,0.19175 -0.15625,0.25195 -0.003,0.0366 0.001,0.0763 -0.01,0.11133 -0.0119,0.0385 -0.03,0.0746 -0.0469,0.11132 0.002,0.0402 -0.009,0.0809 -0.0117,0.1211 -0.0338,0.19237 -0.0667,0.38659 -0.18164,0.54883 -0.002,0.002 -6e-5,-0.009 0,-0.0117 -9.9e-4,-0.0132 -0.0107,-0.0259 -0.0117,-0.0391 -0.006,0.10565 -0.002,0.10494 -0.0293,0.22461 -0.005,0.0218 -0.01,0.0444 -0.0195,0.0645 -0.004,0.008 -0.0186,0.009 -0.0195,0.0176 -0.0327,0.32631 0.1947,-0.33896 -0.12304,0.40234 0.008,-0.008 0.0174,-0.0135 0.0254,-0.0215 -0.0702,0.16578 -0.11546,0.33967 -0.16797,0.51172 -0.007,0.0309 -0.01,0.0636 -0.0176,0.0937 -0.005,0.0183 -0.0185,0.0319 -0.0195,0.0508 -0.004,0.0426 0.0163,0.0866 0.0117,0.1289 -0.018,0.1328 -0.0539,0.20889 -0.11719,0.31445 -0.004,0.005 -0.0107,0.0216 -0.0117,0.0156 -0.0108,-0.0471 -0.0175,-0.19078 -0.0195,-0.14258 -0.003,0.0582 0.0216,0.11572 0.0176,0.17383 -0.008,0.10473 -0.0703,0.1904 -0.11719,0.2793 -0.005,0.009 -0.006,0.0264 -0.0156,0.0254 -0.009,-9e-4 0.001,-0.0362 -0.002,-0.0274 -0.007,0.0173 -0.008,0.0365 -0.0117,0.0547 -0.0179,0.0819 -0.0497,0.15083 -0.0586,0.23633 -0.0241,0.0259 -0.0472,0.053 -0.0723,0.0781 -3.9e-4,-8.7e-4 7.8e-4,-0.01 0,-0.008 -10e-4,0.002 -0.002,0.007 -0.004,0.01 v 0.002 c -0.0345,0.0346 -0.0706,0.0683 -0.0996,0.10742 -0.0244,0.0328 0.0555,-0.042 0.0918,-0.0801 -0.0283,0.0701 -0.0487,0.14451 -0.0664,0.2168 -0.0254,0.0689 -0.0297,0.14539 -0.0586,0.21289 -0.0163,0.0382 -0.0459,0.0696 -0.0723,0.10156 -0.004,0.005 -0.0156,0.01 -0.0176,0.008 -0.008,-0.0297 2.8e-4,-0.11988 -0.0117,-0.0918 -0.014,0.0332 -0.0107,0.0712 -0.0117,0.10742 -0.0245,0.0625 -0.05,0.12488 -0.0742,0.1875 -2.3e-4,0.001 -0.002,0.003 -0.002,0.004 -0.005,0.0136 -0.0105,0.0273 -0.0156,0.041 -0.01,0.022 -0.0239,0.0533 -0.0352,0.0684 0.002,0.0241 0.0168,0.0489 0.0117,0.0723 -0.008,0.0292 -0.16538,0.26604 -0.10938,0.18164 -0.001,-0.0378 0.004,0.0197 -0.0137,0.0117 -0.01,-0.004 -0.008,-0.0414 -0.0117,-0.0312 -0.0199,0.0578 -0.007,0.12949 -0.043,0.18359 -0.0177,0.0481 -0.0515,0.11966 -0.0918,0.17969 -9.9e-4,-0.006 -0.01,-0.01 -0.0117,-0.01 -0.004,0.0112 -0.009,0.0237 -0.0117,0.0352 -0.001,0.003 -0.004,0.005 -0.006,0.008 -0.01,0.0443 -0.0163,0.0904 -0.0332,0.13281 -0.005,0.13254 0.003,0.0988 -0.0391,0.25391 -0.002,0.007 -0.007,0.0126 -0.0117,0.0176 -0.003,0.003 -0.011,-0.001 -0.0117,0.004 -0.0399,0.22799 0.008,0.0925 -0.0625,0.25195 -8.7e-4,0.005 2.2e-4,0.0137 -0.002,0.0176 -0.004,0.0147 -0.0168,0.0256 -0.0234,0.0391 -0.003,0.007 -0.005,0.0108 -0.006,0.0117 -0.0291,0.0534 -0.065,0.10413 -0.0937,0.1582 -0.005,0.009 0.009,-0.008 0.0195,-0.0215 -0.028,0.0676 -0.0544,0.13821 -0.0957,0.19726 -0.019,0.0272 -0.0415,0.0523 -0.0625,0.0781 0.0257,-0.0349 0.0443,-0.0641 -0.002,-0.0274 -0.01,0.0277 -0.0293,0.0515 -0.041,0.0781 v 0.004 c -0.0685,0.15554 -0.15932,0.29758 -0.25977,0.43555 -0.0704,0.16304 -0.0399,0.11891 -0.18164,0.29102 -0.007,0.008 0.0117,-0.0192 0.0117,-0.0293 -9.9e-4,-0.008 -0.0165,-0.0236 -0.0195,-0.0156 -0.039,0.0914 -0.0101,0.20382 -0.0644,0.29102 -0.0329,0.10185 -0.0686,0.20029 -0.11914,0.29492 -0.012,0.0225 -0.0258,0.0455 -0.0371,0.0684 -0.006,0.0114 -0.0109,0.0472 -0.0156,0.0352 -0.022,-0.0579 -0.0277,-0.12114 -0.041,-0.18164 0.0215,0.28383 0.0291,0.25743 -0.0469,0.36133 -3.2e-4,-0.005 -0.002,-0.01 -0.004,-0.01 -2.5e-4,5.4e-4 -0.006,0.0181 -0.008,0.0254 0.004,-0.006 0.005,-0.009 0.008,-0.0137 8.7e-4,0.002 0.005,0.006 0.004,0.008 -0.003,0.005 -0.007,0.01 -0.0117,0.0156 9.4e-4,-0.003 -7e-5,-0.007 0.002,-0.01 -0.005,0.006 -0.01,0.0125 -0.0117,0.0156 -0.0126,0.0429 -0.0293,0.10913 -0.0293,0.11132 -0.0174,0.0664 -0.0278,0.0932 -0.0508,0.14454 0.002,0.003 0.007,0.009 0.01,0.0117 0.0194,0.0251 -0.01,0.0627 -0.0137,0.0937 -0.009,0.03 -0.0697,0.24953 -0.0879,0.26563 -0.015,0.0131 -0.0373,-0.0308 -0.0488,-0.0371 -0.006,0.0207 -0.009,0.0425 -0.0176,0.0625 -0.0702,0.38498 0.28722,-0.36845 -0.11328,0.34375 -0.007,0.0115 0.0152,-0.0117 0.0293,-0.0273 -0.0411,0.0708 -0.0618,0.15845 -0.10352,0.22461 -0.0553,0.19137 -0.0631,0.30939 -0.14453,0.50976 -0.0213,0.0525 -0.0688,0.0908 -0.0918,0.14258 -0.0153,0.0344 -0.0258,0.0716 -0.0371,0.10742 -0.16944,0.27061 -0.0663,0.0994 -0.20703,0.37891 -0.0231,0.0359 -0.0446,0.0719 -0.0684,0.10742 -0.002,0.002 0.004,-0.01 0.002,-0.01 -0.006,0.002 -0.0107,0.009 -0.0137,0.0137 -0.0155,0.0283 -0.0306,0.0583 -0.0469,0.0879 3.1e-4,0.0542 -0.007,0.0809 -0.0234,0.041 l -0.004,0.008 c 0.0253,0.0634 0.0407,0.0878 0.0391,0.1836 -0.001,0.0575 -0.0349,0.14757 -0.0664,0.20117 0.0106,0.10909 -0.0241,0.21596 -0.10547,0.32031 -0.0287,-0.10536 -0.0817,-0.12475 -0.16407,-0.13867 -0.003,0.005 -0.009,0.0104 -0.0117,0.0156 -0.005,0.0106 -0.003,0.0262 -0.0117,0.0332 -0.005,0.004 -0.006,-0.0255 -0.008,-0.0195 -0.0192,0.064 -0.0304,0.12383 -0.0508,0.17773 0.0876,0.0766 0.15096,0.15761 0.10352,0.24609 -0.0286,0.0533 -0.0746,0.0533 -0.12891,0.0293 v 0.0625 c 0.17145,-0.007 0.35893,-0.374 0.20703,-0.1289 -0.0461,0.0745 -0.0911,0.15056 -0.13476,0.22656 -0.0249,0.0432 -0.0482,0.0872 -0.0723,0.13086 v 8.44531 c 0,2.97596 1.06675,5.67138 2.79883,7.63086 1.73205,1.95942 4.1174,3.16992 6.74805,3.16992 h 51.36328 c 2.26602,0 4.10156,-2.07716 4.10156,-4.64062 0,-2.56347 -1.83554,-4.64063 -4.10156,-4.64063 v -0.0137 h -51.3457 c -0.36464,0 -0.70375,-0.1771 -0.95118,-0.45703 -0.24744,-0.26519 -0.40428,-0.64803 -0.40429,-1.06055 z m -3.89844,8.71875 c -0.007,0.0149 -0.0135,0.0297 -0.0195,0.0449 -0.004,0.0109 0.0188,-0.0215 0.0195,-0.0312 3.2e-4,-0.005 -9e-5,-0.009 0,-0.0137 z m -0.84375,0.85547 c -0.0104,0.0276 -0.0235,0.0537 -0.0352,0.0801 0.008,-0.0129 0.0208,-0.0227 0.0293,-0.0352 -9.9e-4,-0.004 0.005,-0.0349 0.006,-0.0449 z m -0.0977,2.1875 c 1.6e-4,0.004 0.001,0.009 -0.002,0.0117 l -0.004,0.004 c 0.002,-0.005 0.005,-0.0102 0.006,-0.0156 z M 103,211.11719 c -0.0637,0.06 -0.14143,0.14025 -0.25195,0.26953 -0.0193,0.0226 0.0905,-0.0258 0.0898,0.006 -0.002,0.0685 -0.1577,0.21084 -0.0937,0.18359 0.0279,-0.012 0.0434,-0.042 0.0644,-0.0644 0.0346,-0.12451 0.0726,-0.21487 0.16797,-0.33399 0.0269,-0.0305 0.0206,-0.053 0.0234,-0.0605 z m 0.96289,1.46875 c -0.002,0.007 -4.4e-4,0.017 -0.008,0.0234 -0.002,0.003 -0.005,0.005 -0.008,0.008 0.005,-0.0106 0.011,-0.0208 0.0156,-0.0312 z m -1.94531,1.03125 c -0.0167,0.0169 -0.0257,0.0338 -0.043,0.0508 0.008,0.049 0.01,0.0831 0.0156,0.12305 -7.1e-4,-0.0576 0.0136,-0.11612 0.0273,-0.17383 z m -0.0273,0.17383 c 9.7e-4,0.007 -3e-5,0.0147 0.002,0.0215 8.7e-4,-9.7e-4 1.4e-4,-0.003 0.002,-0.004 -6.2e-4,-0.006 -0.004,-0.0116 -0.004,-0.0176 z m -0.20898,0.0391 c -0.0828,0.055 -0.16593,0.11057 -0.25195,0.16211 v 0.01 c 0.0944,-0.0534 0.18511,-0.0935 0.17968,-0.0351 0.0209,-0.0465 0.0471,-0.0914 0.0723,-0.13672 z m 0.82813,0.082 c -8.9e-4,0.002 -0.003,-5.9e-4 -0.004,0.002 -1.8e-4,0.003 2e-4,-0.001 0,0.004 0.001,-0.002 0.003,-0.004 0.004,-0.006 z m -0.83985,0.74219 c -0.08,0.0912 -0.16172,0.18046 -0.24023,0.27343 v 0.83204 c 0.0177,-0.0138 0.0279,-0.006 0.0625,-0.0781 0.014,-0.0293 0.018,-0.0627 0.0273,-0.0937 0.008,-0.0127 0.0204,-0.0222 0.0234,-0.0371 0.004,-0.0204 -0.004,-0.0419 -0.006,-0.0625 -0.0114,-0.12229 -0.0102,-0.24419 0.041,-0.34766 0.0521,-0.009 -0.002,0.005 0.0156,-0.11523 0.0557,-0.38555 0.0545,-0.0396 0.0625,-0.31055 0.004,-0.0201 0.01,-0.0402 0.0137,-0.0605 z m 0.91016,0.82226 c 0.005,-0.007 -0.005,0.0173 -0.008,0.0254 -0.002,0.002 -0.005,0.003 -0.008,0.006 0.006,-0.01 0.009,-0.0224 0.0156,-0.0312 z" /><path
   id="path1417"
   style="fill:#d3d3d3;fill-opacity:1;stroke-width:1.30184"
   d="m 172.60522,88.515078 c 0.0202,0.026 0.0403,0.0521 0.0605,0.0781 -0.009,-0.0385 -0.004,-0.042 -0.0117,-0.0781 z m 14.17969,0 c 0.0155,0.009 0.0313,0.018 0.0469,0.0273 0.28499,-0.0131 0.44014,-0.0212 0.60351,-0.0273 z m 0.93164,0 c 0.13063,0.0117 0.2221,0.0415 0.28711,0.12109 l 0.002,0.002 c 0.009,-0.0453 0.0276,-0.0844 0.0488,-0.12304 z m 1.31446,0 c 0.0602,0.0705 0.11627,0.15272 0.1621,0.25586 0.069,0.15535 0.21841,0.49097 0.29883,0.72461 0.12014,0.11467 0.2064,0.24666 0.23047,0.42968 0.0933,0.12997 0.17634,0.26344 0.20117,0.43165 0.0136,0.0897 -0.015,0.18127 -0.008,0.27148 0.006,0.0576 0.007,-0.11538 0.0195,-0.17188 0.002,-0.009 0.0106,0.0145 0.0156,0.0215 0.0485,0.15675 0.0674,0.31324 0.0645,0.47265 0.005,0.006 0.004,-0.002 0.01,0.006 0.24094,0.75769 0.0283,9.9e-4 0.11718,0.5254 0.001,0.006 0.0125,-0.01 0.0195,-0.008 0.007,0.002 0.0117,0.0106 0.0137,0.0176 0.0676,0.18231 0.0504,0.14657 0.0703,0.3457 -0.005,0.0341 -0.0104,0.0675 -0.0156,0.10157 0.0353,0.0876 0.0579,0.13346 0.11915,0.30273 0.0164,0.0454 0.01,0.10154 0.01,0.1543 0.0351,0.0417 0.0453,0.11573 0.11328,0.36523 0.0705,0.25885 0.0101,0.31657 -0.10547,0.28906 0.26884,0.4056 0.4566,0.67979 0.57617,1.24805 0.0438,0.20854 0.081,0.41973 0.084,0.63281 5e-5,0.003 -5e-5,0.009 0,0.0117 0.0815,0.12594 0.16562,0.23335 0.24023,0.375 0.0545,0.10355 0.0537,0.37453 0.041,0.63477 h 26.03125 c 2.49851,-10e-6 4.52539,-1.66507 4.52539,-3.71875 0,-2.05369 -2.02688,-3.71875 -4.52539,-3.71875 z m -1.125,0.19922 c 0.0328,0.0328 0.0643,0.0684 0.0957,0.10351 -6.2e-4,-0.004 5.4e-4,-0.008 0,-0.0117 -0.0495,-0.0451 -0.12698,-0.12298 -0.0957,-0.0918 z m 1.88867,3.41992 c 0.0767,0.0407 0.10887,0.0484 0.16601,0.0742 -0.0302,-0.0269 -0.0512,-0.0409 -0.082,-0.0723 -0.0192,-0.0197 -0.10811,-0.0147 -0.084,-0.002 z m 2.76758,22.738282 c 0.003,0.0301 0.006,0.061 0.008,0.0977 4.5e-4,0.009 0.003,0.0193 0,0.0273 -0.009,0.0263 -0.0273,0.0475 -0.0352,0.0742 -0.004,0.0142 0.0144,-0.0257 0.0234,-0.0371 0.001,-9.8e-4 0.003,0.004 0.004,0.006 0.009,0.0521 0.006,0.0994 -0.008,0.15039 -0.0158,0.0556 -0.0177,0.0171 -0.0137,0.0527 0.005,0.0731 -0.035,0.14129 -0.041,0.21289 -0.002,-0.0162 8.2e-4,-0.0644 -0.006,-0.0488 -0.0112,0.0374 -0.006,0.077 -0.0137,0.11523 -0.003,0.0149 -0.0116,0.0289 -0.0176,0.043 v 0.002 l 0.002,0.002 c 0.0121,0.0508 -0.003,0.108 -0.0137,0.1582 -0.0121,0.0549 -0.0242,0.1061 -0.0449,0.1582 l -0.002,0.002 c -0.002,0.0198 -0.005,0.0339 -0.008,0.0488 0.0197,0.0236 0.0332,0.0587 0.0332,0.10938 v 0.35547 0.22461 c -2e-4,0.066 0.005,0.13081 -0.0117,0.19531 -0.01,0.0361 -0.0106,0.0279 -0.0117,0.0293 -5.1e-4,0.003 -6.9e-4,0.006 -0.002,0.01 -4.8e-4,0.002 -0.002,0.002 -0.002,0.004 -0.009,0.055 -0.0202,0.10721 -0.0391,0.16015 -0.0198,0.0559 -0.0507,0.079 -0.082,0.0899 -0.002,0.009 -0.006,0.0181 -0.008,0.0273 -0.018,0.0562 -0.0211,0.11973 -0.0371,0.17774 v 0.0508 0.0117 c 1.3e-4,0.011 0.002,0.0168 0.002,0.0293 -6e-5,0.003 -0.002,0.003 -0.002,0.006 0,0.006 3.3e-4,0.0117 0,0.0176 -0.002,0.0384 -0.007,0.0768 -0.01,0.11523 -0.0188,0.14737 -0.0364,0.29546 -0.0645,0.44141 -0.013,0.0367 -0.0126,0.0719 -0.01,0.10938 0.001,0.007 0.009,0.0125 0.008,0.0195 -0.002,0.0227 -0.008,0.046 -0.0117,0.0684 -0.005,0.012 -0.0106,0.0231 -0.0156,0.0351 -0.007,0.0174 -0.02,0.0208 -0.0293,0.0332 -0.002,0.0233 0.003,0.0485 -0.002,0.0703 -0.007,0.0292 -0.0174,0.057 -0.0254,0.0859 -0.0173,0.0491 -0.0346,0.10174 -0.041,0.15429 0.0428,0.0175 0.0744,0.0656 0.0449,0.14649 -0.0306,0.0838 -0.0119,0.17576 -0.0527,0.25586 -0.008,0.0152 -0.0262,0.0255 -0.0332,0.041 -0.003,0.007 0.0135,-0.008 0.0195,-0.0117 0.004,0.0193 -0.006,0.0379 -0.01,0.0566 10e-4,0.007 0.009,0.01 0.01,0.0176 0.008,0.0797 0.01,0.10104 0.0137,0.17774 5.4e-4,0.0116 0.004,0.024 0,0.0351 -0.006,0.0179 -0.0133,0.0341 -0.0215,0.0508 -1.1e-4,0.0176 2e-5,0.0351 0,0.0527 0.01,0.0618 -0.0364,0.10876 -0.0508,0.16406 -0.003,0.0127 -0.01,0.0261 -0.0117,0.0391 -0.0174,0.106 -0.0254,0.21384 -0.0586,0.31641 -0.005,0.009 -0.0136,0.0171 -0.0156,0.0273 0,0.003 0.007,1e-4 0.01,0 0.001,0.006 0.007,0.0116 0.006,0.0176 -0.0128,0.0692 -0.0313,0.10027 -0.0566,0.15235 0.0282,0.0497 0.028,0.0762 0.0273,0.13476 -0.005,0.048 -0.003,0.0411 -0.0195,0.0957 -0.004,0.012 -0.0107,0.0229 -0.0137,0.0352 -0.002,0.0112 0.005,0.0237 0.004,0.0352 -0.002,0.0192 -0.009,0.0375 -0.0117,0.0566 -0.0142,0.05 -0.0305,0.0992 -0.0469,0.14843 -0.009,0.0263 -0.0133,0.0177 -0.006,0.0312 0.01,0.0373 -0.006,0.09 -0.0117,0.12891 -0.006,0.0411 -0.004,0.04 -0.0156,0.0879 0.002,0.019 -0.039,0.0644 -0.041,0.0781 -6e-4,0.005 0.007,-0.008 0.0117,-0.008 0.003,-10e-4 0.002,0.005 0.002,0.008 -0.002,0.0226 -0.006,0.0439 -0.008,0.0664 -0.002,0.0139 -0.008,0.0293 -0.0117,0.043 1e-4,0.0311 -0.0238,0.0538 -0.0312,0.082 -9e-4,0.003 -0.0134,0.0849 -0.0137,0.0859 -0.003,0.0183 -0.008,0.0365 -0.0117,0.0547 -0.003,0.01 -0.009,0.0193 -0.0117,0.0293 -0.007,0.0187 -0.0113,0.0312 -0.0176,0.0449 0,-0.0178 -0.003,-0.0702 -0.006,-0.0527 -0.005,0.03 -0.002,0.0613 -0.002,0.0918 -0.008,0.0178 -0.0131,0.0339 -0.0117,0.0527 0.001,0.006 0.007,0.0135 0.006,0.0195 -0.004,0.024 -0.0106,0.0465 -0.0156,0.0703 -0.006,0.01 -0.0115,0.019 -0.0156,0.0293 0.002,-0.001 0.008,-0.003 0.01,-0.002 0.003,0.002 5.5e-4,0.008 0,0.0117 -0.002,0.0166 -0.008,0.0341 -0.0117,0.0508 -3.9e-4,0.002 4e-4,0.004 0,0.006 -4.1e-4,0.23047 0,0.46091 0,0.69141 h 25.77735 c 2.49851,0 4.52539,-1.66506 4.52539,-3.71875 0,-2.05368 -2.02688,-3.71683 -4.52539,-3.7168 z m -0.75196,4.33203 c -0.007,0.0315 -0.0163,0.0628 -0.0234,0.0937 -7e-5,0.005 -3e-5,0.012 0,0.0176 0.0187,-0.0268 0.0179,-0.0278 0.0234,-0.0371 -3.9e-4,-0.0248 8.9e-4,-0.0495 0,-0.0742 z m -0.15429,0.98047 c -0.002,0.009 -0.003,0.0181 -0.004,0.0273 -10e-4,0.008 0.003,0.0233 0.004,0.0312 -0.001,0.01 -0.003,0.0147 -0.004,0.0234 0.005,-0.0119 0.0112,-0.0232 0.01,-0.0371 0.002,-0.006 3.2e-4,-0.0126 0.004,-0.0176 9.8e-4,-0.002 0.002,0.004 0.004,0.004 0.002,0 7.3e-4,-0.003 0,-0.004 -0.005,-0.0103 -0.009,-0.0181 -0.0137,-0.0273 z m -0.0234,0.18555 c -0.005,0.024 -0.009,0.0508 -0.0156,0.0781 0.001,0.0308 -0.0254,0.0977 -0.0508,0.14453 0,10e-4 -1e-5,0.003 0,0.004 0.003,-0.003 0.008,-0.0117 0.0117,-0.0117 3.9e-4,-0.003 7.2e-4,-0.007 0.002,-0.01 0.002,-0.008 0.005,-0.0154 0.008,-0.0234 0.0135,-0.0404 0.0249,-0.081 0.0391,-0.1211 0.013,-0.0433 2.4e-4,0.0143 0.008,-0.0605 z m -0.0566,0.24609 c -0.002,0.0124 -0.005,0.0249 -0.008,0.0371 l -0.002,0.002 c 9e-5,0.0169 0,0.0338 0,0.0508 0.004,-0.0232 0.0101,-0.0463 0.008,-0.0703 6.4e-4,-0.006 7.4e-4,-0.013 0.002,-0.0195 z m -8.57813,20.55274 c -0.0384,0.0661 -0.0682,0.13569 -0.10742,0.20117 -0.003,0.0163 -0.006,0.0326 -0.01,0.0488 -0.11011,0.30783 -0.19344,0.6268 -0.33007,0.92382 -0.26898,0.58472 -0.70714,1.15019 -1.2168,1.68946 -0.19184,0.27031 -0.38245,0.54212 -0.57422,0.8125 -0.20226,0.2457 -0.40975,0.48689 -0.60742,0.73632 -0.52794,0.66623 -1.01868,1.36096 -1.54883,2.0254 -0.29551,0.37031 -0.60385,0.72929 -0.9082,1.09179 h 9.39062 c 2.51287,0 4.53711,-1.68641 4.53711,-3.76367 0,-2.07731 -2.0386,-3.76562 -4.53711,-3.76562 z" /><path
   id="path1417-6"
   style="fill:#e6e7e8;fill-opacity:1;stroke-width:2.16965"
   d="m 121.41577,85.843198 c -4.48496,0 -8.11523,2.57615 -8.11523,5.75391 0,3.17776 3.63027,5.75391 8.11523,5.75391 h 44.6836 c -0.011,-0.0229 -0.0181,-0.0474 -0.0293,-0.0703 -0.0155,-0.0364 -0.0208,-0.0596 -0.0274,-0.0801 0.017,0.0233 0.0725,0.0731 0.0547,0.0547 -0.0403,-0.0419 -0.0475,-0.0493 -0.0586,-0.0625 v -0.002 c -0.0172,-0.021 -0.028,-0.0558 -0.0469,-0.14844 -0.0187,-0.0401 -0.0476,-0.0817 -0.0508,-0.12109 -4e-4,-0.004 0.008,3.1e-4 0.0117,0 -0.0471,-0.0685 -0.047,-0.0822 -0.0586,-0.13281 -0.001,-0.001 -0.003,-3.4e-4 -0.004,-0.002 -9.1e-4,-0.001 -4e-4,-0.002 -0.002,-0.004 -0.0248,-0.0172 -0.0312,-0.0452 -0.082,-0.18555 -0.0339,-0.0677 -0.0613,-0.13696 -0.0801,-0.21094 -0.001,-0.004 -0.005,-0.0138 -0.008,-0.0215 -0.01,1.5e-4 -0.0195,-2e-4 -0.0293,0 0.002,-0.0296 0.003,-0.0512 0.004,-0.0742 -0.019,-0.0441 -0.037,-0.0878 -0.0527,-0.13281 -0.0205,-0.0116 -0.0342,-0.0289 -0.041,-0.0508 -0.002,-0.003 -0.006,-0.005 -0.008,-0.008 -0.0251,-0.0488 -0.0383,-0.10369 -0.0547,-0.15625 -0.004,-0.007 -0.009,-0.0138 -0.0117,-0.0215 -10e-4,-0.004 -0.002,-0.007 -0.002,-0.0117 -0.0106,-0.0258 -0.0215,-0.056 -0.0234,-0.0605 -0.004,-0.0108 -0.0157,-0.0218 -0.0137,-0.0332 0.001,-0.005 0.0206,0.007 0.0176,0.002 -0.11903,-0.17352 -0.0313,0.052 -0.10742,-0.2207 4.5e-4,-0.004 0.004,-0.0179 0.006,-0.0312 -0.005,-0.008 -0.027,-0.0379 -0.0176,-0.0234 -0.002,-0.005 -0.01,-0.0117 -0.006,-0.0137 0.007,-0.002 0.0245,0.0144 0.0215,0.01 -0.008,-0.0214 -0.20301,-0.15276 -0.15821,-0.21875 -0.004,-0.0103 -0.007,-0.0208 -0.01,-0.0312 l -0.002,-0.002 c 4.9e-4,-0.0192 -0.007,-0.0652 -0.0898,-0.21289 -0.008,-0.0137 -0.002,0.0294 -0.004,0.0449 0.004,0.0102 0.0157,0.0421 0.0117,0.0312 -0.0496,-0.14539 -0.0373,-0.10353 -0.13281,-0.27539 h 0.002 c -0.0864,-0.15554 -0.0551,-0.26934 0.0176,-0.32226 -0.0747,-0.006 -0.15508,-0.0446 -0.2168,-0.16797 -0.0323,-0.0645 -0.0654,-0.12886 -0.0976,-0.19336 -0.0438,-0.0874 -0.0953,-0.17054 -0.0918,-0.25977 -0.0383,-0.0658 -0.048,-0.1458 -0.0605,-0.21875 -0.003,-0.01 -0.005,-0.0193 -0.008,-0.0293 h -0.002 c -0.012,-0.0494 -0.0239,-0.0988 -0.0352,-0.14844 -0.0122,-0.1079 -0.0528,-0.20958 -0.0859,-0.3125 -0.84064,-1.81097 -1.45575,-3.82104 -2.49024,-5.55273 -0.0319,0.0447 -0.064,0.0844 -0.0918,0.0684 -0.001,-6.7e-4 -0.0107,-0.003 -0.0117,-0.004 -0.0201,-0.0127 -0.0458,-0.0363 -0.0879,-0.0742 -0.0446,-0.0513 -0.0813,-0.10877 -0.12109,-0.16406 -0.0342,-0.0242 -0.0693,-0.0481 -0.0976,-0.0781 -0.0397,-0.0413 -0.0733,-0.0883 -0.10938,-0.13281 -0.0646,-0.12599 -0.15752,-0.23696 -0.24414,-0.35156 -0.0797,-0.0631 -0.15911,-0.12678 -0.23242,-0.19727 -0.0596,-0.0573 -0.11132,-0.12159 -0.16602,-0.18359 -0.0563,-0.0638 -0.048,-0.0584 -0.0742,-0.0879 -0.10601,-0.0839 -0.23063,-0.14696 -0.34375,-0.2168 h -0.002 c -0.26229,-0.16195 -0.18663,-0.39764 0.0215,-0.38477 0.008,-0.007 0.0139,-0.0128 0.0215,-0.0195 z m 44.10742,10.06641 c 0.006,0.0143 0.0112,0.0271 0.0137,0.0332 -0.004,-0.0137 -0.009,-0.0276 -0.0137,-0.041 -7.9e-4,-0.002 -2.1e-4,0.005 0,0.008 z m 0.36524,0.87305 c 8.6e-4,6e-4 0.003,4e-4 0.004,0.002 -0.003,-0.012 -0.01,-0.01 -0.0137,-0.0293 -0.002,-0.009 0.004,0.0147 0.01,0.0274 z m -4.55274,-10.93946 c 0.0307,0.0187 0.061,0.0381 0.0918,0.0566 -0.004,-0.0188 -0.006,-0.0378 -0.01,-0.0566 z m 17.35938,0.084 c 3.8e-4,0.0145 2.5e-4,0.0313 0.002,0.0449 0.0815,0.009 0.16233,0.0219 0.24414,0.0332 -0.008,-0.0124 -0.0193,-0.0235 -0.0215,-0.0371 -0.0737,-0.019 -0.14965,-0.0279 -0.22461,-0.041 z m 57.8789,5.16992 c -0.13372,0.37383 -0.26998,0.75897 -0.28515,1.02734 -0.003,0.0515 0.009,0.67556 0.0137,1.02735 0.19591,-0.49511 0.30859,-1.01522 0.30859,-1.55469 0,-0.16894 -0.017,-0.33477 -0.0371,-0.5 z m -71.73242,2.89453 c -0.0279,0.0366 -0.0576,0.0727 -0.0684,0.11719 -0.0108,0.0448 0.0856,0.0187 0.13282,-0.0156 -0.0212,-0.034 -0.0436,-0.0674 -0.0645,-0.10156 z m 0.31836,0.50391 c -0.007,0.009 -0.0108,0.0219 -0.0195,0.0293 0.0133,0.001 0.0254,-0.004 0.0391,0 -0.006,-0.01 -0.0133,-0.0194 -0.0195,-0.0293 z m 0.0879,0.81054 c 1.4e-4,10e-4 -8e-5,0.003 0,0.004 0.01,0.0176 0.0202,0.0404 0.0293,0.0293 -0.0349,-0.0257 -0.0267,-0.0271 -0.0293,-0.0332 z m 12.24024,1.00977 c -0.0949,0.005 -0.19329,0.0186 -0.29493,0.043 0.0495,0.008 0.4025,0.0649 0.5293,0.084 -0.001,-0.0416 6.4e-4,-0.0752 -0.002,-0.11719 -0.0758,-0.008 -0.15183,-0.01 -0.23242,-0.01 z m -11.36328,0.0469 c 0.0197,0.0542 0.0403,0.10818 0.0508,0.16602 0.001,6.2e-4 0.007,-0.003 0.008,-0.002 0.005,0.008 0.009,0.0158 0.0137,0.0234 -0.0213,-0.0628 -0.0482,-0.12451 -0.0684,-0.1875 -0.001,2e-5 -0.003,-1e-5 -0.004,0 z m 0.1914,0.57227 c 0.0734,0.0948 0.0586,0.0941 0.0586,0.10547 -0.007,-0.0195 -0.0142,-0.0391 -0.0215,-0.0586 -0.0186,-0.0239 -0.0468,-0.0594 -0.0371,-0.0469 z m 0.0586,0.10742 c -0.002,0.0177 -0.004,0.0351 -0.006,0.0527 0.0177,0.007 0.0195,0.001 0.0234,-0.004 -0.006,-0.0162 -0.0115,-0.0326 -0.0176,-0.0488 z m -0.18946,0.2461 c -0.008,0.009 -0.0137,0.0358 -0.0195,0.0625 h 0.0957 c -0.0286,-0.044 -0.0566,-0.0833 -0.0762,-0.0625 z m -2.56445,29.332032 -0.01,0.002 -42.19531,0.002 c -4.48496,0 -8.11526,2.57615 -8.11523,5.75391 0,3.17777 3.63027,5.75391 8.11523,5.75391 h 32.70313 c 0.0133,-0.0573 0.0542,-0.11986 0.1289,-0.17969 0.1407,-0.11268 0.26868,-0.25863 0.4375,-0.33203 0.019,-0.008 0.039,-0.0128 0.0586,-0.0195 l 0.002,-0.002 c 0.0162,-0.0253 0.0425,-0.0548 0.0606,-0.0742 0.007,-0.007 0.0154,-0.0145 0.0234,-0.0215 0.0354,-0.0335 0.0728,-0.0462 0.11133,-0.0625 -0.006,-3e-4 0.008,-0.0106 0.0117,-0.0156 0.004,-0.005 0.007,-0.0107 0.0117,-0.0137 0.0412,-0.027 0.0799,-0.0619 0.12695,-0.0762 0.003,-0.001 0.009,-0.003 0.0137,-0.004 0.0924,-0.0655 0.19066,-0.12587 0.29297,-0.17187 h 0.002 c 0.0189,-0.0195 0.0367,-0.0416 0.0508,-0.0527 0.0426,-0.0337 0.0872,-0.0641 0.13281,-0.0938 0.005,-0.0115 0.0103,-0.0229 0.0176,-0.0332 0.0601,-0.085 0.13172,-0.11675 0.19922,-0.18945 0.0281,-0.0218 0.0567,-0.0442 0.0859,-0.0645 0.0291,-0.0204 0.0617,-0.0338 0.0918,-0.0527 0.0543,-0.0342 0.0977,-0.0803 0.13477,-0.13281 0.0427,-0.0334 0.0845,-0.0686 0.1289,-0.0996 0.005,-0.004 0.0118,-0.006 0.0156,-0.004 0.0254,-0.0405 0.0504,-0.0867 0.0723,-0.10937 0.0277,-0.0289 0.064,-0.0479 0.0957,-0.0723 0.0529,-0.0349 0.1038,-0.0729 0.1582,-0.10547 0.0382,-0.0229 0.15666,-0.0741 0.19336,-0.0996 0.0227,-0.0157 0.0391,-0.0412 0.0606,-0.0586 0.0354,-0.0287 0.0741,-0.052 0.11132,-0.0781 0.0323,-1e-4 0.005,0.004 0.0508,-0.0449 0.042,-0.0448 0.0958,-0.0941 0.15234,-0.12695 0.0762,-0.067 0.0615,-0.0605 0.16992,-0.11328 0.009,-0.004 0.0182,-0.004 0.0274,-0.006 0.003,0.004 0.003,0.0157 0.008,0.0137 0.0172,-0.008 0.0228,-0.033 0.041,-0.041 0.0185,-0.0232 0.0331,-0.05 0.0547,-0.0703 0.0138,-0.013 0.0326,-0.0195 0.0488,-0.0293 0.077,-0.096 0.1179,-0.14526 0.2539,-0.32227 0.0342,-0.0445 0.0633,-0.0917 0.10157,-0.13281 0.0741,-0.0795 0.16452,-0.14127 0.24804,-0.21094 0.0323,-0.0427 0.0636,-0.0862 0.0957,-0.12891 0.005,-0.0734 0.0255,-0.15052 0.084,-0.17968 0.005,-0.003 0.0829,-0.12938 0.0996,-0.14258 2e-4,-0.007 -0.001,-0.0131 0,-0.0195 0.0158,-0.0948 0.0935,-0.17295 0.14453,-0.24805 0.0356,-0.0313 0.0351,-0.03 0.0762,-0.0566 0.0103,-0.0429 0.006,-0.0105 0.11133,-0.18164 0.007,-0.0115 -0.0192,0.0333 -0.0312,0.0273 -0.0117,-0.006 0.0203,-0.0193 0.0293,-0.0293 0.0774,-0.0872 0.12598,-0.15082 0.18164,-0.22071 0.003,-0.0152 -0.003,-0.0239 0,-0.0351 0.0323,-0.10586 0.0743,-0.14347 0.13086,-0.16602 0.004,-0.006 0.006,-0.0133 0.01,-0.0195 -0.002,0.006 -0.002,0.0117 -0.004,0.0176 h 0.002 c 0.001,-0.005 0.006,-0.0246 0.01,-0.0312 8e-5,-0.004 -1.9e-4,-0.007 0,-0.01 2.5e-4,-0.005 0.005,-0.008 0.008,-0.0117 -0.003,0.009 -0.005,0.0161 -0.008,0.0215 -2.4e-4,0.0122 7.5e-4,0.0121 0.002,0.0273 0.002,-5.3e-4 0.004,-7.5e-4 0.006,-0.002 -5.1e-4,-0.0168 0.003,-0.0397 0.002,-0.0488 9e-4,-0.001 0.001,-0.003 0.002,-0.004 8.4e-4,-9.9e-4 9.5e-4,-0.002 0.002,-0.004 -0.007,-0.0237 -0.006,-0.0274 0.0957,-0.15039 0.0392,-0.0215 0.079,-0.0494 0.1211,-0.0645 0.0288,-0.0104 0.0985,-0.047 0.0879,-0.0274 0,0 0.002,0 0.002,0 h 0.002 c 0.001,-0.0103 -0.002,-0.0216 0.002,-0.0312 0.0535,-0.11907 0.12618,-0.13672 0.21289,-0.14844 0.019,-0.0325 0.0318,-0.0683 0.0723,-0.0879 0.0246,-0.0114 0.0491,-0.0251 0.0742,-0.0352 0.008,-0.003 0.0164,-0.003 0.0254,-0.004 0.006,0 0.0126,0.005 0.0176,0.002 0.0353,-0.0201 0.0786,-0.0906 0.11914,-0.0898 -0.0109,0.0727 0.005,-0.0303 0.0371,-0.0469 0.007,-0.003 0.0147,-0.003 0.0215,-0.006 0.0273,-0.0503 0.0543,-0.10092 0.0859,-0.14844 0.0114,-0.0172 0.0207,-0.0363 0.0352,-0.0508 0.0204,-0.0202 0.0438,-0.0369 0.0664,-0.0547 0.0116,-0.0536 0.0368,-0.0953 0.10157,-0.1582 0.004,-0.002 0.0849,-0.0488 0.0723,-0.0684 0.0405,-0.0826 0.0865,-0.17003 0.15235,-0.23633 0.0234,-0.0235 0.0508,-0.0431 0.0762,-0.0645 0.009,-0.008 0.0203,-0.0125 0.0273,-0.0215 0.0311,-0.0391 0.0459,-0.0914 0.0684,-0.13476 0.0163,-0.0314 0.0337,-0.063 0.0508,-0.0937 0.0347,-0.0732 0.10541,-0.11839 0.15821,-0.17579 0.0168,-0.0182 0.0307,-0.0414 0.0449,-0.0645 0.0108,-0.0164 0.005,-0.0299 0.0195,-0.0469 0.0186,-0.0213 0.0249,-0.0246 0.0391,-0.041 0.001,-0.008 -0.0186,0.007 0.0606,-0.0898 0.0689,-0.0842 0.0308,-0.0164 0.0586,-0.0703 0.0167,-0.0494 0.005,-0.0146 0.0742,-0.11523 0.0519,-0.0759 0.10458,-0.13791 0.17578,-0.19531 0.008,-0.007 0.0194,-0.0105 0.0254,-0.0195 -0.009,7e-4 -0.022,0.007 -0.0117,-0.01 0.0469,-0.0727 0.0907,-0.12544 0.1543,-0.18164 0.006,-0.007 0.0672,-0.0469 0.0664,-0.0625 -2e-4,-0.005 -0.0106,4.1e-4 -0.0156,0 0.0438,-0.19505 0.14376,-0.16547 0.26172,-0.23047 0.005,-0.003 -0.009,-0.01 -0.01,-0.0156 0,-0.005 0.006,-0.009 0.008,-0.0137 0.008,-0.0172 0.0182,-0.0337 0.0273,-0.0508 0.0337,-0.082 0.0702,-0.16163 0.11133,-0.24023 0.0183,-0.0576 0.0696,-0.0912 0.10547,-0.13477 0.005,-0.006 -0.0125,0.0114 -0.0195,0.01 -0.005,-0.001 0.006,-0.009 0.008,-0.0137 0.004,-0.0148 0.008,-0.03 0.0117,-0.0449 0.0215,-0.078 0.0161,-0.0722 0.0859,-0.16602 0.0377,-0.0506 0.0662,-0.0507 0.0801,-0.10156 0.0216,-0.0673 0.0599,-0.12593 0.11328,-0.17188 -2.4e-4,0.005 -7.1e-4,0.0126 0,0.01 0.001,-0.003 9.1e-4,-0.007 0.002,-0.01 0.005,0.005 -0.002,-0.004 0,-0.004 2.5e-4,-0.008 -9.9e-4,-0.012 0,-0.0176 0.002,-0.006 0.0102,0.0189 0.002,0.0176 l 0.002,-0.002 c 0.0149,-0.0526 0.0173,-0.11129 0.0449,-0.1582 0.0201,-0.0341 0.069,-0.041 0.0957,-0.0703 0.004,-0.003 0.0167,-0.0133 0.0117,-0.0117 -0.011,0.005 -0.0192,0.0175 -0.0312,0.0195 -0.005,6e-4 0.002,-0.0106 0.004,-0.0156 0.007,-0.0176 0.0145,-0.0353 0.0215,-0.0527 0.0287,-0.0704 0.006,-0.02 0.0723,-0.13086 0.0569,-0.066 0.0853,-0.14496 0.1211,-0.22266 0.0234,-0.0475 0.0238,-0.0553 0.0684,-0.10546 0.0136,-0.0152 0.0336,-0.0237 0.0469,-0.0391 0.005,-0.006 -0.0135,0.0123 -0.0215,0.0117 -0.004,-3.8e-4 0.003,-0.01 0.006,-0.0137 0.0124,-0.0199 0.026,-0.0391 0.0391,-0.0586 l 0.002,-0.004 c -6.9e-4,-0.0372 0.003,-0.0583 0.0781,-0.16406 0.0158,-0.0144 0.0328,-0.027 0.0469,-0.043 0.003,-0.004 -0.01,0.009 -0.0137,0.006 -8.2e-4,-5e-4 0.0135,-0.0347 0.0215,-0.0527 0.0283,-0.0667 -0.007,0.016 0.0391,-0.084 0.0374,-0.0888 0.0851,-0.15046 0.15234,-0.22266 0.0721,-0.0773 0.055,-0.0271 0.0664,-0.0879 -0.004,-0.0412 0.0182,-0.069 0.0469,-0.0918 0.006,-0.0132 0.0122,-0.0281 0.0195,-0.041 0.004,-0.007 0.008,-0.0235 0.0156,-0.0215 0.005,0.001 -0.001,0.0571 0.002,0.0117 8.5e-4,-0.0183 0.002,-0.0129 0.002,-0.0137 -0.001,-0.004 -7.7e-4,-0.009 -0.002,-0.0117 -0.0158,-0.0928 -0.0181,-0.16344 0.041,-0.24414 0.0124,-0.0151 0.0247,-0.0301 0.0371,-0.0449 -0.001,0.002 0.007,0.008 0.008,0.006 0.003,-0.007 0.004,-0.0141 0.006,-0.0215 l 0.004,-0.006 c 0.001,-0.006 3e-4,-0.0118 0.006,-0.0156 0.006,-0.005 0.009,0.0145 0.0117,0.0215 -1.1e-4,-0.0204 10e-5,-0.0382 0,-0.0586 0.007,-0.0394 0.0194,-0.0765 0.0274,-0.11523 0.0161,-0.0772 0.0289,-0.15496 0.0645,-0.22656 0.026,0.0274 0.0484,0.0606 0.0781,0.082 -0.009,-0.0118 -0.0616,-0.0446 -0.0664,-0.0781 -0.0282,-0.18732 0.0191,-0.19046 0.0723,-0.30078 0.0191,-0.0398 0.0355,-0.0806 0.0527,-0.12109 z m -4.25781,6.52148 c -0.18533,0.26205 -0.13248,-0.0922 -0.14258,0.24609 0.0453,-0.0614 0.0891,-0.1224 0.13476,-0.18359 1.2e-4,-0.0154 -0.002,-0.018 -0.002,-0.0273 -9e-5,-0.007 0.007,-0.0101 0.01,-0.0156 4e-5,-0.007 -7.8e-4,-0.0131 0,-0.0195 z m 0,0.0195 c -8e-5,0.0126 -0.003,0.0243 -0.002,0.0371 0.024,-0.0324 0.05,-0.0628 0.0703,-0.0976 0.007,-0.0128 -0.0283,-0.004 -0.043,-0.002 -0.005,0 -0.0167,0.007 -0.0117,0.008 0.007,9.8e-4 0.0215,-0.0124 0.0195,-0.006 -0.006,0.0221 -0.0236,0.0397 -0.0332,0.0605 z m -0.002,0.0371 -0.006,0.006 c -2e-4,0.0264 -0.001,0.0626 0.002,0.0469 0.003,-0.0175 0.005,-0.0344 0.004,-0.0527 z m -0.97656,1.17969 c 0.006,-0.004 0.005,0.004 -0.008,0.0332 0.002,0.0208 0.005,0.0833 0.008,0.0625 0.004,-0.0318 -9.9e-4,-0.0637 0,-0.0957 z m -3.44336,3.0625 c 0.01,-0.004 0.0164,-0.0119 0.0293,-0.0156 -0.002,8e-5 -0.004,-1.4e-4 -0.006,0 -0.008,0.005 -0.0144,0.0161 -0.0234,0.0156 z m 7.85742,-8.85938 c -0.006,0.009 -0.0128,0.0172 -0.0156,0.0274 -0.007,0.0275 -0.002,0.11174 0.004,0.084 0.016,-0.0754 0.0118,-0.0871 0.0117,-0.11133 z m -3.125,4.36524 c 0.0184,-0.003 -0.036,7.5e-4 -0.0547,0.002 -0.005,0.003 -0.0104,0.007 -0.0156,0.01 0.0243,-0.003 0.0427,-0.007 0.0703,-0.0117 z m -0.11523,0.0391 c -0.005,0.003 -0.0104,0.007 -0.0156,0.01 -0.002,0.007 -0.0108,0.0255 -0.008,0.0195 0.007,-0.0111 0.0172,-0.0182 0.0234,-0.0293 z m -0.57422,0.53516 c -0.0159,0.003 -0.0364,0.0152 -0.0645,0.0645 -0.006,0.0104 -0.0156,0.0193 -0.0176,0.0312 -10e-4,0.009 -0.004,0.0149 -0.002,0.0273 0.0246,-0.0309 0.0458,-0.0528 0.0801,-0.0957 0.004,-0.0142 1.3e-4,-0.0187 0.004,-0.0273 z m 16.66797,0.71289 c -0.002,0.002 -0.002,0.0315 -0.004,0.0449 0.003,-0.003 0.008,-0.009 0.0117,-0.0117 -0.002,-0.006 -0.006,-0.0343 -0.008,-0.0332 z m -17.45117,0.47851 c -7.7e-4,0.002 -0.003,0.004 -0.004,0.006 -0.002,0.0108 -0.001,0.0183 0,0.0332 l 0.002,-0.002 c 0.001,-0.0125 0.002,-0.0245 0.002,-0.0371 z m -3.42383,2.875 c -0.01,0.003 -0.0183,0.006 -0.0273,0.01 0.003,-8e-4 0.007,-5.7e-4 0.01,-0.002 0.006,-0.002 0.0236,-0.01 0.0176,-0.008 z m -9.75,41.02539 c 2.9e-4,0.0102 6.3e-4,0.0202 0,0.0332 h 0.0254 c 0.0469,-3.9e-4 0.0937,4.8e-4 0.14062,0 -0.0171,-0.005 -0.0368,-0.0123 -0.0527,-0.0176 -0.0397,-0.006 -0.0384,-0.007 -0.11328,-0.0156 z" /><path
   id="path2296"
   style="fill:#d3d3d3;fill-opacity:1;stroke-width:1.2961"
   d="m 186.23022,166.94086 -33.02343,0.002 c -0.092,0.0576 -0.16176,0.10987 -0.0215,0.13281 0.007,-0.004 0.0135,8e-4 0.0215,-0.006 0.0197,-0.006 0.0278,-0.0271 0.0703,-0.0547 -0.0142,0.0157 -0.0227,0.0362 -0.041,0.0469 -0.0128,0.007 -0.0184,0.002 -0.0293,0.008 -0.003,9.8e-4 -0.008,0.01 -0.0117,0.01 -0.005,-7.2e-4 -0.005,-0.003 -0.01,-0.004 -0.0589,0.0295 -0.10323,0.0539 -0.17383,0.0508 -0.0534,0 -0.10728,0.006 -0.16015,-0.006 -2e-5,-3.9e-4 0.002,-0.003 0.002,-0.004 -0.083,0.0212 -0.17493,0.0175 -0.2539,0.0508 -0.16594,0.0698 0.0917,0.0276 0.0937,0.0274 -0.0515,-0.001 -0.0662,0.0194 -0.11914,0.0254 -0.0566,0.006 -0.11302,0.003 -0.16992,0.006 -0.0119,7.3e-4 0.0382,0.007 0.0352,0 -0.0342,-0.004 -0.089,0.0115 -0.1211,0.0254 -0.0244,0.0105 -0.0453,0.0281 -0.0703,0.0371 -0.0386,0.0139 -0.0787,0.0242 -0.11914,0.0312 -0.0163,0.003 -0.0323,10e-6 -0.0488,0 -0.008,-1e-4 -0.0169,1.1e-4 -0.0254,0 -0.0329,0.0174 -0.0633,0.039 -0.0918,0.0449 -0.004,8e-4 0.005,-0.007 0.008,-0.01 1.5e-4,-0.002 -1.6e-4,-0.004 0,-0.006 -0.0558,0.09 -0.14366,0.13703 -0.24414,0.17578 -0.012,0.004 -0.0228,0.0147 -0.0352,0.0117 -0.007,-0.001 0.005,-0.0235 0,-0.0195 -0.0193,0.0127 -0.0263,0.0403 -0.0469,0.0508 -0.0833,0.0426 -0.13042,0.055 -0.1875,0.0488 -0.001,-1.3e-4 -0.003,1.6e-4 -0.004,0 -0.0358,0.005 -0.007,0.003 -0.0898,0.0195 -0.0294,0.006 -0.0583,0.0108 -0.0879,0.0156 -0.0599,0.009 -0.11757,0.0268 -0.17774,0.0371 -0.0206,0.0165 -0.007,0.008 -0.0234,0.0156 -0.0321,0.0154 -0.0685,0.0214 -0.10351,0.0274 -0.009,9.8e-4 -0.0253,0.007 -0.0293,-0.002 -5.3e-4,-0.001 9.1e-4,-0.002 0.002,-0.004 -0.007,0.001 -0.0143,0.003 -0.0215,0.004 -0.002,0.002 -0.004,0.003 -0.006,0.004 -0.24578,0.0427 -0.23916,0.0311 -0.1875,0.0391 -0.0144,-0.002 -0.0277,0.003 -0.041,0.002 -0.0195,0.003 -0.0341,0.0152 -0.0547,0.0176 -0.0641,0.007 -0.0569,0.003 -0.0723,0.006 -0.0471,0.0137 -0.0953,0.0256 -0.14258,0.0391 -0.008,0.007 -0.003,0.0105 -0.0156,0.0176 -0.0568,0.0322 -0.12259,0.047 -0.18359,0.0703 0.0161,-0.007 -0.0132,-0.032 -0.0352,0.004 -0.0889,0.0306 0.038,-0.0158 -0.084,0.0391 -0.0694,0.0312 -0.1427,0.0469 -0.2168,0.0625 -0.0582,0.0129 -0.10189,0.0647 -0.15039,0.0977 -0.0449,0.0305 -0.0912,0.0533 -0.14258,0.0723 -0.0228,0.008 -0.0469,0.0135 -0.0703,0.0195 -0.0297,0.003 -0.0602,0.005 -0.0898,0.008 -0.0207,0.0128 -0.0426,0.0248 -0.0645,0.0351 -0.0128,0.007 -0.0275,0.009 -0.041,0.0137 0.005,-0.0113 0.0261,-0.0402 0.0156,-0.0332 -0.0678,0.0425 -0.0825,0.0585 -0.0762,0.0625 0.006,-0.007 0.0389,-0.0244 -0.15039,0.0391 -0.0168,0.006 0.031,0.002 0.0527,-0.002 0.0103,-0.005 0.0209,-0.0108 0.0312,-0.0156 0.009,-0.004 -0.0173,0.0134 -0.0273,0.0156 -0.001,2.8e-4 -0.002,-2.7e-4 -0.004,0 -0.0115,0.006 -0.0236,0.0115 -0.0352,0.0176 -0.0757,0.0254 -0.11906,0.0457 -0.19726,0.0527 -0.0589,0.005 -0.11893,-4.3e-4 -0.17774,0.006 -0.0202,0.002 0.034,0.003 0.0605,0.004 0.002,-5.7e-4 0.004,-9e-4 0.006,-0.002 v 0.002 c -0.002,-2e-5 -0.003,4e-5 -0.006,0 -0.0199,0.006 -0.0406,0.0112 -0.0605,0.0176 -0.12801,0.0283 -0.2548,0.0463 -0.38476,0.0645 -0.0618,0.009 -0.12445,0.0127 -0.18555,0.0254 -0.013,0.003 -0.0247,0.009 -0.0371,0.0137 -0.14748,0.0593 -0.30742,0.13198 -0.4707,0.11328 -0.16408,0.002 -0.31928,0.0413 -0.47266,0.0976 -0.0394,0.0117 -0.0847,0.0272 -0.12695,0.0332 -0.0224,0.003 -0.0459,0.004 -0.0684,0.006 -0.009,-0.001 -0.0164,-0.003 -0.0254,-0.002 -0.1282,0.0161 -0.2001,0.0382 -0.30078,0.0645 -0.0117,0.006 -0.0233,0.0131 -0.0352,0.0195 -0.0164,0.009 -0.0306,0.0233 -0.0488,0.0273 -0.0549,0.0117 -0.11347,0.004 -0.16797,0.0176 -0.0231,0.006 0.0486,0.008 0.0723,0.01 0.0102,-0.0172 0.005,-0.005 -0.0391,0.01 -0.0513,0.0172 -0.0982,0.0405 -0.14844,0.0606 -0.01,0.003 -0.0211,0.006 -0.0312,0.01 -0.0825,0.0295 0.0378,-0.0153 -0.082,0.0391 -0.1,0.0454 -0.20834,0.0694 -0.31445,0.0957 -0.0233,0.001 -0.0471,8.6e-4 -0.0703,0.002 -9.9e-4,4.5e-4 -0.003,-4.5e-4 -0.004,0 -0.0376,0.0157 -0.0724,0.0386 -0.11133,0.0508 -0.20238,0.0638 -0.24481,0.0548 -0.45508,0.0723 -0.0414,0.003 -0.0626,-0.0141 -0.0957,-0.0195 -0.025,0.008 -0.049,0.0214 -0.0723,0.0273 -0.0136,0.003 -0.029,7.4e-4 -0.043,0.002 -0.0127,9e-5 -0.025,-0.004 -0.0371,0 -0.0206,0.007 -0.0392,0.0203 -0.0586,0.0293 -0.0396,0.0193 -0.0789,0.0387 -0.11914,0.0566 -0.18454,0.0821 -0.3748,0.15161 -0.57226,0.19531 -0.0878,0.0204 -0.17538,0.0423 -0.26368,0.0605 -0.17062,0.0353 -0.0266,-0.013 -0.22461,0.0371 -0.0872,0.0221 -0.16531,0.0712 -0.25781,0.0762 -0.0345,0.008 -0.0705,0.0116 -0.10547,0.0176 -0.36302,0.0609 -0.72546,0.12784 -1.09375,0.14844 -0.0448,0.006 -0.0892,0.007 -0.13281,0.0195 -0.098,0.0272 -0.1753,0.11351 -0.28711,0.10351 -0.0483,0.0117 -0.0991,0.0145 -0.14844,0.0195 -0.25328,0.025 -0.23155,0.0215 -0.46875,0.0215 h -0.002 c -0.0292,0 -0.0381,-0.0155 -0.0625,-0.0195 -0.0478,0.0341 -0.11477,0.0586 -0.20703,0.0586 h -0.44336 c -0.0499,0.0124 -0.0977,0.0333 -0.15039,0.0371 -0.0516,-0.003 -0.1065,-0.01 -0.1582,-0.004 -0.0238,0.003 -0.0465,0.009 -0.0703,0.0117 -0.0403,0.006 -0.0806,0.01 -0.12109,0.0137 -0.0198,0 -0.13028,-4.6e-4 -0.14648,0.004 -0.0316,0.009 -0.0571,0.04 -0.0899,0.043 -0.003,2.5e-4 -0.005,-1.9e-4 -0.008,0 0.12102,0.0921 -0.01,0.0721 -0.14063,0.0352 -0.0671,0.0245 -0.26207,0.0627 -0.29101,0.0684 -0.25527,0.0532 -0.50941,0.11172 -0.76953,0.13671 -0.1843,-0.009 -0.37649,-0.0215 -0.56055,-0.002 -0.0305,0.003 -0.0592,0.0195 -0.0898,0.0215 -0.07,0.005 -0.14074,8.1e-4 -0.21094,0.002 0.018,0.004 0.0368,0.009 0.0547,0.0137 0.0137,0.004 -0.0289,-0.003 -0.043,-0.004 -0.0679,-0.004 -0.12091,0.0415 -0.19141,0.041 -0.0356,0.002 -0.32349,0.0824 -0.21094,0.004 -0.1112,0.0748 -0.23068,0.11365 -0.36523,0.11328 -0.0917,0.0221 -0.0858,0.0202 -0.19531,0.043 -0.0142,0.003 -0.0285,0 -0.043,0 h -0.35742 c -0.0805,0 -0.13579,-0.0236 -0.18164,-0.0508 -0.0113,0.0772 -0.0612,0.15581 -0.20118,0.19335 -0.14885,0.04 -0.36334,0.146 -0.52539,0.125 -0.0726,-0.009 -0.10231,-0.021 -0.1289,-0.0391 -0.003,-1e-5 -0.004,-1.6e-4 -0.006,0 -0.0913,0.008 -0.18204,0.004 -0.27344,0.002 -0.0267,0.0216 0.0187,0.004 0.0137,0.006 -0.13901,0.0449 -0.17667,0.0514 -0.31445,0.0312 -0.0501,0.003 -0.1049,-0.007 -0.1543,0.002 -0.0224,0.004 -0.0415,0.0164 -0.0625,0.0254 -0.0837,0.0355 -0.16139,0.0166 -0.24609,0.01 -0.0267,-0.002 -0.0534,-1.2e-4 -0.0801,0 -0.11956,0.004 -0.23976,0.002 -0.35937,0.002 -0.086,-2.7e-4 -0.17182,0 -0.25782,0 -0.0781,-5e-5 -0.15627,-1e-5 -0.23437,0 -0.0911,1e-5 -0.18234,0 -0.27344,0 h -0.27148 -0.28125 -0.22071 -0.44531 -0.40234 -0.64453 -0.3379 -0.2207 -0.23047 -0.39648 -0.34375 -0.45703 -0.39844 -0.3125 -0.42969 -0.16797 -0.11718 -0.11524 c -0.0733,0.003 -0.12166,-0.005 -0.19726,-0.0312 -0.0218,-0.008 -0.041,-0.0233 -0.0625,-0.0312 -0.007,-0.003 0.0106,0.0126 0.0176,0.0156 -0.0816,0.0207 -0.14463,-0.007 -0.21093,-0.0391 -0.003,0.001 -0.005,-0.003 -0.008,-0.002 -0.0109,-0.003 -0.0227,-0.006 -0.0332,-0.01 -0.001,-4.6e-4 -0.002,-0.002 -0.002,-0.004 -0.0294,-0.0112 -0.0573,-0.0278 -0.0879,-0.0332 -0.004,-7e-4 -0.004,0.0107 -0.008,0.0117 -0.0319,0.009 -0.1109,0.005 -0.1504,0.008 -0.15121,0.005 -0.30186,-7e-5 -0.45312,0 -0.0808,8.2e-4 -0.16138,9e-5 -0.24219,0 -0.10602,-5e-5 -0.21235,0 -0.31836,0 -0.13228,0 -0.26419,-1e-5 -0.39648,0 h -0.12891 -0.20117 -0.35742 -0.1836 c -0.0668,-0.009 -0.13877,0.0119 -0.20507,0 -0.10942,-0.0197 -0.0999,-0.0204 -0.1836,-0.0547 -0.003,0.001 -0.009,8.1e-4 -0.0117,0.004 -0.0411,-0.0134 -0.0848,-0.0177 -0.12109,-0.041 -0.0179,-0.002 -0.0887,-0.022 -0.11719,-0.0312 -0.0615,0.007 -0.10294,-9.9e-4 -0.19531,-0.0547 -0.0186,-0.0108 -0.0635,-0.0361 -0.0449,-0.0469 0.019,-0.011 0.0295,0.0344 0.0488,0.0449 0.0185,0.01 0.0421,0.0106 0.0625,0.0156 0.10598,0.0272 0.11232,-0.002 0.0879,-0.0508 -0.0245,0.003 -0.0496,0.003 -0.0742,0 -0.15591,-0.0144 -0.20277,-0.0288 -0.36133,-0.0605 l -0.002,0.004 c -0.0407,-0.008 -0.0557,-0.0306 -0.0859,-0.0449 -0.007,0.0426 -0.0156,0.0847 -0.0156,0.1289 0,2.06848 1.99238,3.74414 4.45118,3.74414 h 58.69922 c 2.45881,0 4.45117,-1.67566 4.45117,-3.74414 0,-2.06683 -1.98925,-3.74144 -4.44532,-3.74414 z m -33.28515,0.13672 c 0.0114,0.0136 -0.034,0.0203 -0.0645,0.0293 -0.002,0.002 -0.002,0.005 -0.004,0.006 -0.004,0.001 -0.009,2.3e-4 -0.0137,0.002 -0.004,9.9e-4 -0.003,0.003 -0.008,0.004 0.0138,-0.004 0.0296,-0.002 0.043,-0.008 0.0176,-0.008 0.0345,-0.0479 0.0469,-0.0332 z m -0.0977,0.0449 c 0.003,0.0101 0.0213,0.008 -0.0586,0.0332 -0.0582,-0.009 -0.004,-0.0203 0.0586,-0.0332 z m -26.91406,0.0801 c -0.003,10e-4 -0.007,2.2e-4 -0.01,0.002 0.0729,-2e-5 0.14672,4e-4 0.21875,0 -0.0696,-5e-4 -0.13933,-3e-4 -0.20898,-0.002 z m 25.71484,0.11523 c 3.6e-4,0.003 -3.8e-4,0.002 0,0.006 9e-4,-0.004 9.2e-4,-0.002 0.002,-0.006 z m -0.52929,0.34766 c -0.005,0.002 -0.009,0.007 -0.0137,0.01 0.002,-5.3e-4 0.004,-9e-4 0.006,-0.002 0.003,-0.002 0.005,-0.005 0.008,-0.008 z m -3.27735,0.35156 c -0.0745,0.0136 -0.29159,-0.004 -0.18164,0.0274 h 0.002 c 0.0416,-0.004 0.0831,-0.006 0.125,-0.008 0.004,2.8e-4 0.008,-4.6e-4 0.0117,0 0.0145,-0.007 0.0287,-0.0125 0.043,-0.0195 z m -0.49609,0.0918 c -0.005,0.007 -0.0171,0.0204 -0.0606,0.0332 -0.0147,0.004 -0.0298,0.007 -0.0449,0.01 0.0219,0.003 0.0378,0.008 0.0937,-0.006 -0.001,-0.001 -0.006,-7.2e-4 -0.004,-0.002 0.0224,-0.0102 0.0511,-0.0135 0.0762,-0.0234 -0.013,5.4e-4 -0.0263,9e-5 -0.0391,0 -0.0177,-0.0173 -0.0163,-0.0182 -0.0215,-0.0117 z m -0.60543,0.10351 c -9.3e-4,10e-4 -0.008,0.006 -0.01,0.008 0.005,-0.002 0.0105,-0.004 0.0156,-0.006 -9.9e-4,9.2e-4 -0.004,-0.004 -0.006,-0.002 z m -0.28711,0.0918 c -0.006,0.002 -0.0132,0.003 -0.0195,0.006 0.005,-10e-4 0.006,5.6e-4 0.0137,-0.002 0.002,-0.001 0.008,-0.005 0.006,-0.004 z m -0.0762,0.01 c -0.002,-1.8e-4 0.004,0.002 0.006,0.002 0.005,1.5e-4 0.006,-0.002 0.01,-0.002 -0.007,-7.2e-4 -0.008,7.9e-4 -0.0156,0 z m 0.0352,0.002 c -0.0279,0.0118 -0.055,0.0157 -0.082,0.0215 0.0111,-0.002 -0.004,0.004 0.0156,0 0.0251,-0.004 0.0495,-0.0116 0.0742,-0.0176 0.004,-0.001 0.008,-0.002 0.0117,-0.004 -0.006,1.8e-4 -0.0115,7.1e-4 -0.0195,0 z m -0.38868,0.0645 c -0.0179,0.005 -0.0337,0.0154 -0.0508,0.0234 0.0127,-0.004 0.0264,-0.006 0.0391,-0.01 h 0.002 c 0.001,-4.4e-4 0.003,-0.002 0.004,-0.002 -0.002,-7.6e-4 -0.005,-3.7e-4 -0.004,-0.002 0.002,-0.004 0.0114,-0.01 0.01,-0.01 z m -0.0508,0.0234 c -0.0283,0.007 -0.0576,0.013 -0.0859,0.0195 -0.002,0.002 0.008,0.005 0.0352,-0.006 0.0171,-0.006 0.0342,-0.008 0.0508,-0.0137 z m -0.0859,0.0195 c 0.003,-0.002 0.007,-0.01 0.004,-0.01 -0.009,0.004 -0.0172,0.008 -0.0254,0.0137 0.003,7.7e-4 0.0226,-0.005 0.0215,-0.004 z m -0.27539,0.0293 c -0.003,6.6e-4 -0.006,0.003 -0.01,0.004 0.003,0.001 0.005,5.2e-4 0.008,0.002 0.002,0 0.004,-0.006 0.002,-0.006 z m -0.0234,0.006 c -0.10035,0.0226 -0.19707,0.0619 -0.29688,0.0859 -0.14419,0.0327 -0.30802,0.0692 -0.45703,0.0762 -0.0216,-0.0323 0.01,0.006 -0.0605,0.0176 -0.0648,0.011 -0.13206,0.006 -0.19726,0.0137 -0.009,0.001 0.0164,0.007 0.0254,0.008 0.0123,0.002 0.0248,0.001 0.0371,0 0.011,-10e-4 0.0225,-0.005 0.0332,-0.008 0.0139,-0.0247 -0.006,0.0132 -0.0488,0.0234 -0.0559,0.0134 -0.25887,0.0287 -0.13476,0.0215 -0.0101,0.004 -0.0192,0.0115 -0.0293,0.0176 0.26701,-0.0668 0.53994,-0.10617 0.81055,-0.1543 0.0712,-0.0175 0.14394,-0.0283 0.21484,-0.0469 0.0352,-0.009 0.0678,-0.0283 0.10352,-0.0351 0.0245,-0.005 0.0494,-0.007 0.0742,-0.01 -0.0123,-0.002 -0.024,0.006 -0.043,0.004 -0.0106,-0.004 -0.0199,-0.0106 -0.0312,-0.0137 z m 0.15625,0.002 c -0.01,0.002 -0.0269,0.002 -0.0352,0.002 0.15075,0.0325 0.0562,3.4e-4 0.041,-0.002 -0.002,-4.2e-4 -0.004,-3.7e-4 -0.006,0 z m -6.67383,0.63867 c -0.0741,0.0126 -0.14875,0.0213 -0.22266,0.0352 -0.002,0.003 -0.004,0.006 -0.006,0.01 0.0745,-0.014 0.14965,-0.0251 0.22461,-0.0371 0.004,-0.002 -1.1e-4,-0.005 0.004,-0.008 z m 5.1582,0.0605 c -0.0507,0.007 -0.0121,-0.0109 -0.16992,0.0312 -0.0617,0.0165 -0.12259,0.0369 -0.18359,0.0566 0.0166,-0.002 -6.3e-4,0.002 0.0566,-0.01 0.0764,-0.0157 0.15261,-0.0365 0.22851,-0.0547 0.0236,-0.005 0.045,-0.0174 0.0684,-0.0234 z m -4.51953,0.19727 c -0.01,9.9e-4 -0.0224,0.005 -0.0312,0.006 0.011,0.001 0.0222,0.002 0.0332,0.002 0.003,-2.1e-4 9e-5,-0.004 -0.002,-0.008 z m 1.42578,0.0742 c -0.005,9.7e-4 -0.0105,6.8e-4 -0.0156,0.002 -0.008,0.001 -0.0154,4e-4 -0.0234,0.002 -0.048,0.0112 -0.0974,0.0176 -0.14649,0.0254 0.008,-1.2e-4 0.0156,3.4e-4 0.0234,0 0.029,0.003 0.0589,0.0114 0.0879,0.01 0.015,-0.002 0.0235,-0.0184 0.0371,-0.0254 0.012,-0.006 0.0249,-0.009 0.0371,-0.0137 z m -0.76758,0.13477 c -0.0137,0.003 -0.0263,0.01 -0.0391,0.0156 0.003,-1.7e-4 0.005,2e-4 0.008,0 0.0245,0.002 0.0499,0.01 0.0742,0.006 0.007,-0.001 0.0133,-0.006 0.0195,-0.01 -0.0266,0.002 -0.053,0.003 -0.0801,0.004 0.005,-0.005 0.0246,-0.0176 0.0176,-0.0156 z m -0.58984,0.61133 c -0.0139,0.009 -0.0275,0.0178 -0.041,0.0273 0.0242,0.001 0.0482,0.004 0.0723,0.002 -0.0156,-0.0119 -0.004,-0.0128 -0.0312,-0.0293 z m -0.041,0.0273 c -0.0673,-0.004 -0.13436,-0.0129 -0.20117,-0.006 -0.0243,0.003 0.0691,0.025 0.13281,0.043 0.004,-0.001 0.0128,-0.003 0.0156,-0.004 0.0191,-0.008 0.0356,-0.0211 0.0527,-0.0332 z m -4.32812,0.32031 c -0.002,0.002 -0.002,0.004 -0.004,0.006 0.0352,0.005 0.0701,0.012 0.10547,0.0176 0.0251,0.0193 0.0114,0.008 0.0176,0.0117 0.0491,-0.009 0.0889,-0.0259 0.125,-0.0352 h -0.0332 z m -8.23633,0.041 c 0.0249,0.006 0.0495,0.0131 0.0742,0.0215 0.003,0.001 0.01,0.005 0.008,0.008 -0.002,0.005 -0.0187,0.004 -0.0137,0.006 0.0242,0.009 0.0524,-0.0109 0.0762,0 h 0.11524 0.11718 0.0586 c -0.0539,-9.9e-4 -0.0849,-0.0208 -0.12305,-0.0352 h -0.043 -0.10742 -0.15625 z m 7.11524,0.0371 c 0.0528,8.2e-4 0.1223,5e-5 0.13085,0.01 0.002,0.002 -0.0126,-8e-5 -0.01,0.002 0.005,0.003 0.01,-4e-5 0.0156,0 0.0167,-0.006 0.0325,-0.007 0.0488,-0.0117 h -0.11719 z m 0.99414,0.25195 c -0.006,-0.004 0.0106,0.009 0.0156,0.0137 0.003,0.001 0.005,0.003 0.008,0.004 -0.009,-0.007 -0.0109,-0.009 -0.0234,-0.0176 z m -8.45899,0.0293 v 0.002 c 0.0118,0.005 0.0211,0.0166 0.0352,0.0137 -0.0118,-0.006 -0.023,-0.009 -0.0352,-0.0156 z m 0.71289,22.54297 c -2.47293,0 -4.46484,1.70072 -4.46484,3.79297 0,0.64975 0.21036,1.25208 0.55078,1.78711 h 2.45117 c 1.86953,-3e-5 3.73984,-7e-5 5.60938,0 1.05198,5e-5 2.10427,2.3e-4 3.15625,0 0.74927,0 1.49683,0.003 2.24609,-0.002 1.51866,-0.008 3.03804,0.0155 4.55664,0.0195 0.9905,-0.0363 1.98492,-0.1224 2.97656,-0.084 0.26092,0.0103 0.51972,0.042 0.7793,0.0703 0.38843,0.0424 0.77621,0.0952 1.16406,0.14258 0.20146,0.0377 0.40399,0.0711 0.60547,0.10937 0.49705,0.0192 0.99441,0.0338 1.49024,0.0723 1.07206,0.0833 1.7225,0.151 2.3457,0.23242 0.38055,0.005 0.7762,0.008 1.13672,0.0137 1.18255,0.0188 2.00798,0.0373 2.87304,0.0547 0.22272,-0.0478 0.46566,-0.0582 0.64844,-0.0781 1.43154,-0.0349 2.86313,-0.008 4.29492,-0.002 0.59903,-0.64586 0.97071,-1.45079 0.97071,-2.33593 0,-2.09225 -2.008,-3.79297 -4.4668,-3.79297 z" /><path
   id="path2296-3"
   style="fill:#d3d3d3;fill-opacity:1;stroke-width:1.15394"
   d="m 126.92375,193.42719 c -2.1212,0 -3.84001,1.53888 -3.84001,3.43945 0,1.90057 1.71881,3.44141 3.84001,3.44141 h 50.63963 c 2.1212,0 3.84001,-1.54084 3.84001,-3.44141 0,-1.90057 -1.71881,-3.43945 -3.84001,-3.43945 z" /></svg>
